ISO-10303-21;
HEADER;
/* Generated by software containing ST-Developer
 * from STEP Tools, Inc. (www.steptools.com) 
 */

FILE_DESCRIPTION(
/* description */ (''),
/* implementation_level */ '2;1');

FILE_NAME(
/* name */ '',
/* time_stamp */ '2026-08-16T18:40:05+05:00',
/* author */ (''),
/* organization */ (''),
/* preprocessor_version */ 'ST-DEVELOPER v20.1',
/* originating_system */ 'Autodesk Translation Framework v15.8.0.0',
/* authorisation */ '');

FILE_SCHEMA (('AUTOMOTIVE_DESIGN { 1 0 10303 214 3 1 1 }','INTEGRATED_CNC_SCHEMA'));
ENDSEC;

DATA;
#10=MECHANICAL_DESIGN_GEOMETRIC_PRESENTATION_REPRESENTATION('',(#13),#735);
#11=SHAPE_REPRESENTATION_RELATIONSHIP('SRR','None',#742,#12);
#12=ADVANCED_BREP_SHAPE_REPRESENTATION('',(#14),#734);
#13=STYLED_ITEM('',(#751),#14);
#14=MANIFOLD_SOLID_BREP('Body1',#419);
#15=CIRCLE('',#439,3.24999999999999);
#16=CIRCLE('',#440,3.24999999999999);
#17=CIRCLE('',#442,3.24999999999999);
#18=CIRCLE('',#443,3.24999999999999);
#19=CIRCLE('',#446,3.24999999999999);
#20=CIRCLE('',#447,1.34619407771256);
#21=CIRCLE('',#448,0.5);
#22=CIRCLE('',#449,1.75000000000001);
#23=CIRCLE('',#450,0.5);
#24=CIRCLE('',#451,3.24999999999999);
#25=CIRCLE('',#452,1.34619407771256);
#26=CIRCLE('',#453,0.5);
#27=CIRCLE('',#454,1.75000000000001);
#28=CIRCLE('',#455,0.5);
#29=CIRCLE('',#458,0.5);
#30=CIRCLE('',#459,1.75000000000001);
#31=CIRCLE('',#460,0.5);
#32=CIRCLE('',#461,1.34619407771256);
#33=CIRCLE('',#462,3.24999999999999);
#34=CIRCLE('',#463,0.5);
#35=CIRCLE('',#464,1.75000000000001);
#36=CIRCLE('',#465,0.5);
#37=CIRCLE('',#466,1.34619407771256);
#38=CIRCLE('',#467,3.24999999999999);
#39=CYLINDRICAL_SURFACE('',#438,3.24999999999999);
#40=CYLINDRICAL_SURFACE('',#441,3.24999999999999);
#41=CYLINDRICAL_SURFACE('',#469,3.24999999999999);
#42=CYLINDRICAL_SURFACE('',#470,3.24999999999999);
#43=CYLINDRICAL_SURFACE('',#471,0.5);
#44=CYLINDRICAL_SURFACE('',#472,1.75000000000001);
#45=CYLINDRICAL_SURFACE('',#473,0.5);
#46=CYLINDRICAL_SURFACE('',#474,0.5);
#47=CYLINDRICAL_SURFACE('',#475,0.5);
#48=CYLINDRICAL_SURFACE('',#476,1.34619407771256);
#49=CYLINDRICAL_SURFACE('',#477,1.75000000000001);
#50=CYLINDRICAL_SURFACE('',#478,1.34619407771256);
#51=FACE_OUTER_BOUND('',#73,.T.);
#52=FACE_OUTER_BOUND('',#74,.T.);
#53=FACE_OUTER_BOUND('',#75,.T.);
#54=FACE_OUTER_BOUND('',#76,.T.);
#55=FACE_OUTER_BOUND('',#77,.T.);
#56=FACE_OUTER_BOUND('',#78,.T.);
#57=FACE_OUTER_BOUND('',#79,.T.);
#58=FACE_OUTER_BOUND('',#80,.T.);
#59=FACE_OUTER_BOUND('',#81,.T.);
#60=FACE_OUTER_BOUND('',#82,.T.);
#61=FACE_OUTER_BOUND('',#83,.T.);
#62=FACE_OUTER_BOUND('',#84,.T.);
#63=FACE_OUTER_BOUND('',#85,.T.);
#64=FACE_OUTER_BOUND('',#86,.T.);
#65=FACE_OUTER_BOUND('',#87,.T.);
#66=FACE_OUTER_BOUND('',#88,.T.);
#67=FACE_OUTER_BOUND('',#89,.T.);
#68=FACE_OUTER_BOUND('',#90,.T.);
#69=FACE_OUTER_BOUND('',#91,.T.);
#70=FACE_OUTER_BOUND('',#92,.T.);
#71=FACE_OUTER_BOUND('',#93,.T.);
#72=FACE_OUTER_BOUND('',#94,.T.);
#73=EDGE_LOOP('',(#267,#268,#269,#270));
#74=EDGE_LOOP('',(#271,#272,#273,#274));
#75=EDGE_LOOP('',(#275,#276,#277,#278));
#76=EDGE_LOOP('',(#279,#280,#281,#282));
#77=EDGE_LOOP('',(#283,#284,#285,#286));
#78=EDGE_LOOP('',(#287,#288,#289,#290));
#79=EDGE_LOOP('',(#291,#292,#293,#294));
#80=EDGE_LOOP('',(#295,#296,#297,#298));
#81=EDGE_LOOP('',(#299,#300,#301,#302,#303,#304,#305,#306,#307,#308,#309,
#310,#311,#312,#313,#314,#315,#316,#317,#318));
#82=EDGE_LOOP('',(#319,#320,#321,#322));
#83=EDGE_LOOP('',(#323,#324,#325,#326,#327,#328,#329,#330,#331,#332,#333,
#334,#335,#336,#337,#338,#339,#340,#341,#342));
#84=EDGE_LOOP('',(#343,#344,#345,#346));
#85=EDGE_LOOP('',(#347,#348,#349,#350));
#86=EDGE_LOOP('',(#351,#352,#353,#354));
#87=EDGE_LOOP('',(#355,#356,#357,#358));
#88=EDGE_LOOP('',(#359,#360,#361,#362));
#89=EDGE_LOOP('',(#363,#364,#365,#366));
#90=EDGE_LOOP('',(#367,#368,#369,#370));
#91=EDGE_LOOP('',(#371,#372,#373,#374));
#92=EDGE_LOOP('',(#375,#376,#377,#378));
#93=EDGE_LOOP('',(#379,#380,#381,#382));
#94=EDGE_LOOP('',(#383,#384,#385,#386));
#95=LINE('',#613,#131);
#96=LINE('',#615,#132);
#97=LINE('',#617,#133);
#98=LINE('',#618,#134);
#99=LINE('',#622,#135);
#100=LINE('',#624,#136);
#101=LINE('',#626,#137);
#102=LINE('',#627,#138);
#103=LINE('',#631,#139);
#104=LINE('',#633,#140);
#105=LINE('',#635,#141);
#106=LINE('',#636,#142);
#107=LINE('',#640,#143);
#108=LINE('',#642,#144);
#109=LINE('',#644,#145);
#110=LINE('',#645,#146);
#111=LINE('',#648,#147);
#112=LINE('',#650,#148);
#113=LINE('',#651,#149);
#114=LINE('',#656,#150);
#115=LINE('',#662,#151);
#116=LINE('',#666,#152);
#117=LINE('',#668,#153);
#118=LINE('',#669,#154);
#119=LINE('',#675,#155);
#120=LINE('',#685,#156);
#121=LINE('',#693,#157);
#122=LINE('',#694,#158);
#123=LINE('',#702,#159);
#124=LINE('',#715,#160);
#125=LINE('',#717,#161);
#126=LINE('',#719,#162);
#127=LINE('',#721,#163);
#128=LINE('',#723,#164);
#129=LINE('',#726,#165);
#130=LINE('',#728,#166);
#131=VECTOR('',#483,10.);
#132=VECTOR('',#484,10.);
#133=VECTOR('',#485,10.);
#134=VECTOR('',#486,10.);
#135=VECTOR('',#489,10.);
#136=VECTOR('',#490,10.);
#137=VECTOR('',#491,10.);
#138=VECTOR('',#492,10.);
#139=VECTOR('',#495,10.);
#140=VECTOR('',#496,10.);
#141=VECTOR('',#497,10.);
#142=VECTOR('',#498,10.);
#143=VECTOR('',#501,10.);
#144=VECTOR('',#502,10.);
#145=VECTOR('',#503,10.);
#146=VECTOR('',#504,10.);
#147=VECTOR('',#507,10.);
#148=VECTOR('',#508,10.);
#149=VECTOR('',#509,10.);
#150=VECTOR('',#514,10.);
#151=VECTOR('',#521,10.);
#152=VECTOR('',#526,10.);
#153=VECTOR('',#527,10.);
#154=VECTOR('',#528,10.);
#155=VECTOR('',#535,10.);
#156=VECTOR('',#546,10.);
#157=VECTOR('',#555,10.);
#158=VECTOR('',#556,10.);
#159=VECTOR('',#565,10.);
#160=VECTOR('',#582,10.);
#161=VECTOR('',#585,10.);
#162=VECTOR('',#588,10.);
#163=VECTOR('',#591,10.);
#164=VECTOR('',#594,10.);
#165=VECTOR('',#599,10.);
#166=VECTOR('',#602,10.);
#167=VERTEX_POINT('',#611);
#168=VERTEX_POINT('',#612);
#169=VERTEX_POINT('',#614);
#170=VERTEX_POINT('',#616);
#171=VERTEX_POINT('',#620);
#172=VERTEX_POINT('',#621);
#173=VERTEX_POINT('',#623);
#174=VERTEX_POINT('',#625);
#175=VERTEX_POINT('',#629);
#176=VERTEX_POINT('',#630);
#177=VERTEX_POINT('',#632);
#178=VERTEX_POINT('',#634);
#179=VERTEX_POINT('',#638);
#180=VERTEX_POINT('',#639);
#181=VERTEX_POINT('',#641);
#182=VERTEX_POINT('',#643);
#183=VERTEX_POINT('',#647);
#184=VERTEX_POINT('',#649);
#185=VERTEX_POINT('',#653);
#186=VERTEX_POINT('',#655);
#187=VERTEX_POINT('',#659);
#188=VERTEX_POINT('',#661);
#189=VERTEX_POINT('',#665);
#190=VERTEX_POINT('',#667);
#191=VERTEX_POINT('',#671);
#192=VERTEX_POINT('',#674);
#193=VERTEX_POINT('',#676);
#194=VERTEX_POINT('',#678);
#195=VERTEX_POINT('',#681);
#196=VERTEX_POINT('',#684);
#197=VERTEX_POINT('',#686);
#198=VERTEX_POINT('',#688);
#199=VERTEX_POINT('',#692);
#200=VERTEX_POINT('',#696);
#201=VERTEX_POINT('',#698);
#202=VERTEX_POINT('',#700);
#203=VERTEX_POINT('',#703);
#204=VERTEX_POINT('',#706);
#205=VERTEX_POINT('',#708);
#206=VERTEX_POINT('',#711);
#207=EDGE_CURVE('',#167,#168,#95,.T.);
#208=EDGE_CURVE('',#168,#169,#96,.T.);
#209=EDGE_CURVE('',#169,#170,#97,.T.);
#210=EDGE_CURVE('',#170,#167,#98,.T.);
#211=EDGE_CURVE('',#171,#172,#99,.T.);
#212=EDGE_CURVE('',#172,#173,#100,.T.);
#213=EDGE_CURVE('',#173,#174,#101,.T.);
#214=EDGE_CURVE('',#174,#171,#102,.T.);
#215=EDGE_CURVE('',#175,#176,#103,.T.);
#216=EDGE_CURVE('',#176,#177,#104,.T.);
#217=EDGE_CURVE('',#177,#178,#105,.T.);
#218=EDGE_CURVE('',#178,#175,#106,.T.);
#219=EDGE_CURVE('',#179,#180,#107,.T.);
#220=EDGE_CURVE('',#180,#181,#108,.T.);
#221=EDGE_CURVE('',#181,#182,#109,.T.);
#222=EDGE_CURVE('',#182,#179,#110,.T.);
#223=EDGE_CURVE('',#183,#171,#111,.T.);
#224=EDGE_CURVE('',#184,#183,#112,.T.);
#225=EDGE_CURVE('',#184,#172,#113,.T.);
#226=EDGE_CURVE('',#185,#169,#15,.T.);
#227=EDGE_CURVE('',#186,#185,#114,.T.);
#228=EDGE_CURVE('',#186,#170,#16,.T.);
#229=EDGE_CURVE('',#187,#179,#17,.T.);
#230=EDGE_CURVE('',#188,#187,#115,.T.);
#231=EDGE_CURVE('',#188,#180,#18,.T.);
#232=EDGE_CURVE('',#189,#177,#116,.T.);
#233=EDGE_CURVE('',#190,#189,#117,.T.);
#234=EDGE_CURVE('',#190,#178,#118,.T.);
#235=EDGE_CURVE('',#174,#191,#19,.T.);
#236=EDGE_CURVE('',#191,#187,#20,.T.);
#237=EDGE_CURVE('',#182,#192,#119,.T.);
#238=EDGE_CURVE('',#193,#192,#21,.T.);
#239=EDGE_CURVE('',#193,#194,#22,.T.);
#240=EDGE_CURVE('',#189,#194,#23,.T.);
#241=EDGE_CURVE('',#176,#195,#24,.T.);
#242=EDGE_CURVE('',#195,#185,#25,.T.);
#243=EDGE_CURVE('',#168,#196,#120,.T.);
#244=EDGE_CURVE('',#197,#196,#26,.T.);
#245=EDGE_CURVE('',#197,#198,#27,.T.);
#246=EDGE_CURVE('',#183,#198,#28,.T.);
#247=EDGE_CURVE('',#199,#181,#121,.T.);
#248=EDGE_CURVE('',#192,#199,#122,.T.);
#249=EDGE_CURVE('',#200,#184,#29,.T.);
#250=EDGE_CURVE('',#200,#201,#30,.T.);
#251=EDGE_CURVE('',#202,#201,#31,.T.);
#252=EDGE_CURVE('',#202,#167,#123,.T.);
#253=EDGE_CURVE('',#186,#203,#32,.T.);
#254=EDGE_CURVE('',#175,#203,#33,.T.);
#255=EDGE_CURVE('',#204,#190,#34,.T.);
#256=EDGE_CURVE('',#204,#205,#35,.T.);
#257=EDGE_CURVE('',#199,#205,#36,.T.);
#258=EDGE_CURVE('',#188,#206,#37,.T.);
#259=EDGE_CURVE('',#173,#206,#38,.T.);
#260=EDGE_CURVE('',#196,#202,#124,.T.);
#261=EDGE_CURVE('',#206,#191,#125,.T.);
#262=EDGE_CURVE('',#203,#195,#126,.T.);
#263=EDGE_CURVE('',#201,#197,#127,.T.);
#264=EDGE_CURVE('',#198,#200,#128,.T.);
#265=EDGE_CURVE('',#194,#204,#129,.T.);
#266=EDGE_CURVE('',#205,#193,#130,.T.);
#267=ORIENTED_EDGE('',*,*,#207,.T.);
#268=ORIENTED_EDGE('',*,*,#208,.T.);
#269=ORIENTED_EDGE('',*,*,#209,.T.);
#270=ORIENTED_EDGE('',*,*,#210,.T.);
#271=ORIENTED_EDGE('',*,*,#211,.T.);
#272=ORIENTED_EDGE('',*,*,#212,.T.);
#273=ORIENTED_EDGE('',*,*,#213,.T.);
#274=ORIENTED_EDGE('',*,*,#214,.T.);
#275=ORIENTED_EDGE('',*,*,#215,.T.);
#276=ORIENTED_EDGE('',*,*,#216,.T.);
#277=ORIENTED_EDGE('',*,*,#217,.T.);
#278=ORIENTED_EDGE('',*,*,#218,.T.);
#279=ORIENTED_EDGE('',*,*,#219,.T.);
#280=ORIENTED_EDGE('',*,*,#220,.T.);
#281=ORIENTED_EDGE('',*,*,#221,.T.);
#282=ORIENTED_EDGE('',*,*,#222,.T.);
#283=ORIENTED_EDGE('',*,*,#211,.F.);
#284=ORIENTED_EDGE('',*,*,#223,.F.);
#285=ORIENTED_EDGE('',*,*,#224,.F.);
#286=ORIENTED_EDGE('',*,*,#225,.T.);
#287=ORIENTED_EDGE('',*,*,#209,.F.);
#288=ORIENTED_EDGE('',*,*,#226,.F.);
#289=ORIENTED_EDGE('',*,*,#227,.F.);
#290=ORIENTED_EDGE('',*,*,#228,.T.);
#291=ORIENTED_EDGE('',*,*,#219,.F.);
#292=ORIENTED_EDGE('',*,*,#229,.F.);
#293=ORIENTED_EDGE('',*,*,#230,.F.);
#294=ORIENTED_EDGE('',*,*,#231,.T.);
#295=ORIENTED_EDGE('',*,*,#217,.F.);
#296=ORIENTED_EDGE('',*,*,#232,.F.);
#297=ORIENTED_EDGE('',*,*,#233,.F.);
#298=ORIENTED_EDGE('',*,*,#234,.T.);
#299=ORIENTED_EDGE('',*,*,#214,.F.);
#300=ORIENTED_EDGE('',*,*,#235,.T.);
#301=ORIENTED_EDGE('',*,*,#236,.T.);
#302=ORIENTED_EDGE('',*,*,#229,.T.);
#303=ORIENTED_EDGE('',*,*,#222,.F.);
#304=ORIENTED_EDGE('',*,*,#237,.T.);
#305=ORIENTED_EDGE('',*,*,#238,.F.);
#306=ORIENTED_EDGE('',*,*,#239,.T.);
#307=ORIENTED_EDGE('',*,*,#240,.F.);
#308=ORIENTED_EDGE('',*,*,#232,.T.);
#309=ORIENTED_EDGE('',*,*,#216,.F.);
#310=ORIENTED_EDGE('',*,*,#241,.T.);
#311=ORIENTED_EDGE('',*,*,#242,.T.);
#312=ORIENTED_EDGE('',*,*,#226,.T.);
#313=ORIENTED_EDGE('',*,*,#208,.F.);
#314=ORIENTED_EDGE('',*,*,#243,.T.);
#315=ORIENTED_EDGE('',*,*,#244,.F.);
#316=ORIENTED_EDGE('',*,*,#245,.T.);
#317=ORIENTED_EDGE('',*,*,#246,.F.);
#318=ORIENTED_EDGE('',*,*,#223,.T.);
#319=ORIENTED_EDGE('',*,*,#221,.F.);
#320=ORIENTED_EDGE('',*,*,#247,.F.);
#321=ORIENTED_EDGE('',*,*,#248,.F.);
#322=ORIENTED_EDGE('',*,*,#237,.F.);
#323=ORIENTED_EDGE('',*,*,#212,.F.);
#324=ORIENTED_EDGE('',*,*,#225,.F.);
#325=ORIENTED_EDGE('',*,*,#249,.F.);
#326=ORIENTED_EDGE('',*,*,#250,.T.);
#327=ORIENTED_EDGE('',*,*,#251,.F.);
#328=ORIENTED_EDGE('',*,*,#252,.T.);
#329=ORIENTED_EDGE('',*,*,#210,.F.);
#330=ORIENTED_EDGE('',*,*,#228,.F.);
#331=ORIENTED_EDGE('',*,*,#253,.T.);
#332=ORIENTED_EDGE('',*,*,#254,.F.);
#333=ORIENTED_EDGE('',*,*,#218,.F.);
#334=ORIENTED_EDGE('',*,*,#234,.F.);
#335=ORIENTED_EDGE('',*,*,#255,.F.);
#336=ORIENTED_EDGE('',*,*,#256,.T.);
#337=ORIENTED_EDGE('',*,*,#257,.F.);
#338=ORIENTED_EDGE('',*,*,#247,.T.);
#339=ORIENTED_EDGE('',*,*,#220,.F.);
#340=ORIENTED_EDGE('',*,*,#231,.F.);
#341=ORIENTED_EDGE('',*,*,#258,.T.);
#342=ORIENTED_EDGE('',*,*,#259,.F.);
#343=ORIENTED_EDGE('',*,*,#207,.F.);
#344=ORIENTED_EDGE('',*,*,#252,.F.);
#345=ORIENTED_EDGE('',*,*,#260,.F.);
#346=ORIENTED_EDGE('',*,*,#243,.F.);
#347=ORIENTED_EDGE('',*,*,#213,.F.);
#348=ORIENTED_EDGE('',*,*,#259,.T.);
#349=ORIENTED_EDGE('',*,*,#261,.T.);
#350=ORIENTED_EDGE('',*,*,#235,.F.);
#351=ORIENTED_EDGE('',*,*,#215,.F.);
#352=ORIENTED_EDGE('',*,*,#254,.T.);
#353=ORIENTED_EDGE('',*,*,#262,.T.);
#354=ORIENTED_EDGE('',*,*,#241,.F.);
#355=ORIENTED_EDGE('',*,*,#244,.T.);
#356=ORIENTED_EDGE('',*,*,#260,.T.);
#357=ORIENTED_EDGE('',*,*,#251,.T.);
#358=ORIENTED_EDGE('',*,*,#263,.T.);
#359=ORIENTED_EDGE('',*,*,#263,.F.);
#360=ORIENTED_EDGE('',*,*,#250,.F.);
#361=ORIENTED_EDGE('',*,*,#264,.F.);
#362=ORIENTED_EDGE('',*,*,#245,.F.);
#363=ORIENTED_EDGE('',*,*,#246,.T.);
#364=ORIENTED_EDGE('',*,*,#264,.T.);
#365=ORIENTED_EDGE('',*,*,#249,.T.);
#366=ORIENTED_EDGE('',*,*,#224,.T.);
#367=ORIENTED_EDGE('',*,*,#240,.T.);
#368=ORIENTED_EDGE('',*,*,#265,.T.);
#369=ORIENTED_EDGE('',*,*,#255,.T.);
#370=ORIENTED_EDGE('',*,*,#233,.T.);
#371=ORIENTED_EDGE('',*,*,#238,.T.);
#372=ORIENTED_EDGE('',*,*,#248,.T.);
#373=ORIENTED_EDGE('',*,*,#257,.T.);
#374=ORIENTED_EDGE('',*,*,#266,.T.);
#375=ORIENTED_EDGE('',*,*,#253,.F.);
#376=ORIENTED_EDGE('',*,*,#227,.T.);
#377=ORIENTED_EDGE('',*,*,#242,.F.);
#378=ORIENTED_EDGE('',*,*,#262,.F.);
#379=ORIENTED_EDGE('',*,*,#265,.F.);
#380=ORIENTED_EDGE('',*,*,#239,.F.);
#381=ORIENTED_EDGE('',*,*,#266,.F.);
#382=ORIENTED_EDGE('',*,*,#256,.F.);
#383=ORIENTED_EDGE('',*,*,#258,.F.);
#384=ORIENTED_EDGE('',*,*,#230,.T.);
#385=ORIENTED_EDGE('',*,*,#236,.F.);
#386=ORIENTED_EDGE('',*,*,#261,.F.);
#387=PLANE('',#433);
#388=PLANE('',#434);
#389=PLANE('',#435);
#390=PLANE('',#436);
#391=PLANE('',#437);
#392=PLANE('',#444);
#393=PLANE('',#445);
#394=PLANE('',#456);
#395=PLANE('',#457);
#396=PLANE('',#468);
#397=ADVANCED_FACE('',(#51),#387,.T.);
#398=ADVANCED_FACE('',(#52),#388,.T.);
#399=ADVANCED_FACE('',(#53),#389,.T.);
#400=ADVANCED_FACE('',(#54),#390,.T.);
#401=ADVANCED_FACE('',(#55),#391,.T.);
#402=ADVANCED_FACE('',(#56),#39,.T.);
#403=ADVANCED_FACE('',(#57),#40,.T.);
#404=ADVANCED_FACE('',(#58),#392,.T.);
#405=ADVANCED_FACE('',(#59),#393,.T.);
#406=ADVANCED_FACE('',(#60),#394,.T.);
#407=ADVANCED_FACE('',(#61),#395,.F.);
#408=ADVANCED_FACE('',(#62),#396,.T.);
#409=ADVANCED_FACE('',(#63),#41,.T.);
#410=ADVANCED_FACE('',(#64),#42,.T.);
#411=ADVANCED_FACE('',(#65),#43,.T.);
#412=ADVANCED_FACE('',(#66),#44,.F.);
#413=ADVANCED_FACE('',(#67),#45,.T.);
#414=ADVANCED_FACE('',(#68),#46,.T.);
#415=ADVANCED_FACE('',(#69),#47,.T.);
#416=ADVANCED_FACE('',(#70),#48,.F.);
#417=ADVANCED_FACE('',(#71),#49,.F.);
#418=ADVANCED_FACE('',(#72),#50,.F.);
#419=CLOSED_SHELL('',(#397,#398,#399,#400,#401,#402,#403,#404,#405,#406,
#407,#408,#409,#410,#411,#412,#413,#414,#415,#416,#417,#418));
#420=DERIVED_UNIT_ELEMENT(#422,1.);
#421=DERIVED_UNIT_ELEMENT(#737,-3.);
#422=(
MASS_UNIT()
NAMED_UNIT(*)
SI_UNIT(.KILO.,.GRAM.)
);
#423=DERIVED_UNIT((#420,#421));
#424=MEASURE_REPRESENTATION_ITEM('density measure',
POSITIVE_RATIO_MEASURE(7850.),#423);
#425=PROPERTY_DEFINITION_REPRESENTATION(#430,#427);
#426=PROPERTY_DEFINITION_REPRESENTATION(#431,#428);
#427=REPRESENTATION('material name',(#429),#734);
#428=REPRESENTATION('density',(#424),#734);
#429=DESCRIPTIVE_REPRESENTATION_ITEM('\X2\042104420430043B044C\X0\',
'\X2\042104420430043B044C\X0\');
#430=PROPERTY_DEFINITION('material property','material name',#744);
#431=PROPERTY_DEFINITION('material property','density of part',#744);
#432=AXIS2_PLACEMENT_3D('',#609,#479,#480);
#433=AXIS2_PLACEMENT_3D('',#610,#481,#482);
#434=AXIS2_PLACEMENT_3D('',#619,#487,#488);
#435=AXIS2_PLACEMENT_3D('',#628,#493,#494);
#436=AXIS2_PLACEMENT_3D('',#637,#499,#500);
#437=AXIS2_PLACEMENT_3D('',#646,#505,#506);
#438=AXIS2_PLACEMENT_3D('',#652,#510,#511);
#439=AXIS2_PLACEMENT_3D('',#654,#512,#513);
#440=AXIS2_PLACEMENT_3D('',#657,#515,#516);
#441=AXIS2_PLACEMENT_3D('',#658,#517,#518);
#442=AXIS2_PLACEMENT_3D('',#660,#519,#520);
#443=AXIS2_PLACEMENT_3D('',#663,#522,#523);
#444=AXIS2_PLACEMENT_3D('',#664,#524,#525);
#445=AXIS2_PLACEMENT_3D('',#670,#529,#530);
#446=AXIS2_PLACEMENT_3D('',#672,#531,#532);
#447=AXIS2_PLACEMENT_3D('',#673,#533,#534);
#448=AXIS2_PLACEMENT_3D('',#677,#536,#537);
#449=AXIS2_PLACEMENT_3D('',#679,#538,#539);
#450=AXIS2_PLACEMENT_3D('',#680,#540,#541);
#451=AXIS2_PLACEMENT_3D('',#682,#542,#543);
#452=AXIS2_PLACEMENT_3D('',#683,#544,#545);
#453=AXIS2_PLACEMENT_3D('',#687,#547,#548);
#454=AXIS2_PLACEMENT_3D('',#689,#549,#550);
#455=AXIS2_PLACEMENT_3D('',#690,#551,#552);
#456=AXIS2_PLACEMENT_3D('',#691,#553,#554);
#457=AXIS2_PLACEMENT_3D('',#695,#557,#558);
#458=AXIS2_PLACEMENT_3D('',#697,#559,#560);
#459=AXIS2_PLACEMENT_3D('',#699,#561,#562);
#460=AXIS2_PLACEMENT_3D('',#701,#563,#564);
#461=AXIS2_PLACEMENT_3D('',#704,#566,#567);
#462=AXIS2_PLACEMENT_3D('',#705,#568,#569);
#463=AXIS2_PLACEMENT_3D('',#707,#570,#571);
#464=AXIS2_PLACEMENT_3D('',#709,#572,#573);
#465=AXIS2_PLACEMENT_3D('',#710,#574,#575);
#466=AXIS2_PLACEMENT_3D('',#712,#576,#577);
#467=AXIS2_PLACEMENT_3D('',#713,#578,#579);
#468=AXIS2_PLACEMENT_3D('',#714,#580,#581);
#469=AXIS2_PLACEMENT_3D('',#716,#583,#584);
#470=AXIS2_PLACEMENT_3D('',#718,#586,#587);
#471=AXIS2_PLACEMENT_3D('',#720,#589,#590);
#472=AXIS2_PLACEMENT_3D('',#722,#592,#593);
#473=AXIS2_PLACEMENT_3D('',#724,#595,#596);
#474=AXIS2_PLACEMENT_3D('',#725,#597,#598);
#475=AXIS2_PLACEMENT_3D('',#727,#600,#601);
#476=AXIS2_PLACEMENT_3D('',#729,#603,#604);
#477=AXIS2_PLACEMENT_3D('',#730,#605,#606);
#478=AXIS2_PLACEMENT_3D('',#731,#607,#608);
#479=DIRECTION('axis',(0.,0.,1.));
#480=DIRECTION('refdir',(1.,0.,0.));
#481=DIRECTION('center_axis',(1.46059679198172E-31,6.31482544138312E-16,
1.));
#482=DIRECTION('ref_axis',(2.49992824423607E-16,1.,-6.31482544138312E-16));
#483=DIRECTION('',(1.,2.5029741506102E-15,-1.72664416373793E-30));
#484=DIRECTION('',(1.93389390793601E-16,1.,-6.31482544138312E-16));
#485=DIRECTION('',(-1.,1.93389390793603E-16,2.6963635414038E-15));
#486=DIRECTION('',(-1.93389390793601E-16,-1.,6.31482544138312E-16));
#487=DIRECTION('center_axis',(1.46059679198172E-31,6.31482544138312E-16,
1.));
#488=DIRECTION('ref_axis',(2.49992824423607E-16,1.,-6.31482544138312E-16));
#489=DIRECTION('',(-1.,2.8897529321974E-15,-1.67876885435699E-30));
#490=DIRECTION('',(-1.93389390793601E-16,-1.,6.31482544138312E-16));
#491=DIRECTION('',(1.,-1.93389390793603E-16,-2.6963635414038E-15));
#492=DIRECTION('',(1.93389390793601E-16,1.,-6.31482544138312E-16));
#493=DIRECTION('center_axis',(-1.46059679198172E-31,-6.31482544138312E-16,
-1.));
#494=DIRECTION('ref_axis',(-2.49992824423607E-16,-1.,6.31482544138312E-16));
#495=DIRECTION('',(1.,-1.93389390793603E-16,-2.6963635414038E-15));
#496=DIRECTION('',(-1.93389390793601E-16,-1.,6.31482544138312E-16));
#497=DIRECTION('',(-1.,2.88975293219738E-15,-1.67876885435698E-30));
#498=DIRECTION('',(1.93389390793601E-16,1.,-6.31482544138312E-16));
#499=DIRECTION('center_axis',(-1.46059679198172E-31,-6.31482544138312E-16,
-1.));
#500=DIRECTION('ref_axis',(-2.49992824423607E-16,-1.,6.31482544138312E-16));
#501=DIRECTION('',(-1.,1.93389390793603E-16,2.6963635414038E-15));
#502=DIRECTION('',(1.93389390793601E-16,1.,-6.31482544138312E-16));
#503=DIRECTION('',(1.,2.50297415061023E-15,-1.72664416373795E-30));
#504=DIRECTION('',(-1.93389390793601E-16,-1.,6.31482544138312E-16));
#505=DIRECTION('center_axis',(2.04336389431049E-15,0.707106781186548,0.707106781186547));
#506=DIRECTION('ref_axis',(1.76986999503111E-15,-0.707106781186547,0.707106781186548));
#507=DIRECTION('',(1.76986999503111E-15,-0.707106781186547,0.707106781186548));
#508=DIRECTION('',(1.,-1.93389390793603E-16,-2.6963635414038E-15));
#509=DIRECTION('',(1.76986999503111E-15,-0.707106781186547,0.707106781186548));
#510=DIRECTION('center_axis',(1.,-1.93389390793603E-16,-2.6963635414038E-15));
#511=DIRECTION('ref_axis',(-9.94430440209403E-17,0.994131127411901,-0.108181798426269));
#512=DIRECTION('center_axis',(1.,-1.93389390793603E-16,-2.6963635414038E-15));
#513=DIRECTION('ref_axis',(-1.93389390793592E-16,-1.,4.17781738988813E-15));
#514=DIRECTION('',(1.,-1.93389390793603E-16,-2.6963635414038E-15));
#515=DIRECTION('center_axis',(1.,-1.93389390793603E-16,-2.6963635414038E-15));
#516=DIRECTION('ref_axis',(-1.93389390793592E-16,-1.,4.17781738988813E-15));
#517=DIRECTION('center_axis',(1.,-1.93389390793603E-16,-2.6963635414038E-15));
#518=DIRECTION('ref_axis',(-1.93389390793592E-16,-1.,4.17781738988813E-15));
#519=DIRECTION('center_axis',(1.,-1.93389390793603E-16,-2.6963635414038E-15));
#520=DIRECTION('ref_axis',(-1.93389390793592E-16,-1.,4.17781738988813E-15));
#521=DIRECTION('',(1.,-1.93389390793603E-16,-2.6963635414038E-15));
#522=DIRECTION('center_axis',(1.,-1.93389390793603E-16,-2.6963635414038E-15));
#523=DIRECTION('ref_axis',(-1.93389390793592E-16,-1.,4.17781738988813E-15));
#524=DIRECTION('center_axis',(-2.04336389431049E-15,-0.707106781186551,
-0.707106781186545));
#525=DIRECTION('ref_axis',(-1.76986999503112E-15,0.707106781186545,-0.707106781186551));
#526=DIRECTION('',(-1.76986999503112E-15,0.707106781186544,-0.70710678118655));
#527=DIRECTION('',(1.,-1.93389390793603E-16,-2.6963635414038E-15));
#528=DIRECTION('',(-1.76986999503112E-15,0.707106781186544,-0.70710678118655));
#529=DIRECTION('center_axis',(1.,-1.93389390793603E-16,-2.6963635414038E-15));
#530=DIRECTION('ref_axis',(-1.93389390793592E-16,-1.,4.17781738988813E-15));
#531=DIRECTION('center_axis',(1.,-1.93389390793603E-16,-2.6963635414038E-15));
#532=DIRECTION('ref_axis',(-1.93389390793592E-16,-1.,4.17781738988813E-15));
#533=DIRECTION('center_axis',(-1.,1.93389390793603E-16,2.6963635414038E-15));
#534=DIRECTION('ref_axis',(-1.93389390793592E-16,-1.,4.17781738988813E-15));
#535=DIRECTION('',(2.04336389431048E-15,0.707106781186552,0.707106781186543));
#536=DIRECTION('center_axis',(-1.,1.93389390793603E-16,2.6963635414038E-15));
#537=DIRECTION('ref_axis',(-1.09309751419736E-16,0.993729350236666,-0.111812246548463));
#538=DIRECTION('center_axis',(-1.,1.93389390793603E-16,2.6963635414038E-15));
#539=DIRECTION('ref_axis',(-1.93389390793592E-16,-1.,4.17781738988813E-15));
#540=DIRECTION('center_axis',(-1.,1.93389390793603E-16,2.6963635414038E-15));
#541=DIRECTION('ref_axis',(-4.93663178731698E-16,-0.993729350236667,-0.111812246548455));
#542=DIRECTION('center_axis',(1.,-1.93389390793603E-16,-2.6963635414038E-15));
#543=DIRECTION('ref_axis',(-1.93389390793592E-16,-1.,4.17781738988813E-15));
#544=DIRECTION('center_axis',(-1.,1.93389390793603E-16,2.6963635414038E-15));
#545=DIRECTION('ref_axis',(-1.93389390793592E-16,-1.,4.17781738988813E-15));
#546=DIRECTION('',(-2.04336389431049E-15,-0.707106781186548,-0.707106781186547));
#547=DIRECTION('center_axis',(-1.,1.93389390793603E-16,2.6963635414038E-15));
#548=DIRECTION('ref_axis',(1.09309751419723E-16,-0.993729350236666,0.111812246548458));
#549=DIRECTION('center_axis',(-1.,1.93389390793603E-16,2.6963635414038E-15));
#550=DIRECTION('ref_axis',(-1.93389390793592E-16,-1.,4.17781738988813E-15));
#551=DIRECTION('center_axis',(-1.,1.93389390793603E-16,2.6963635414038E-15));
#552=DIRECTION('ref_axis',(4.93663178731728E-16,0.993729350236665,0.111812246548466));
#553=DIRECTION('center_axis',(-1.76986999503112E-15,0.707106781186543,-0.707106781186552));
#554=DIRECTION('ref_axis',(2.04336389431048E-15,0.707106781186552,0.707106781186543));
#555=DIRECTION('',(-2.04336389431048E-15,-0.707106781186552,-0.707106781186543));
#556=DIRECTION('',(-1.,1.93389390793603E-16,2.6963635414038E-15));
#557=DIRECTION('center_axis',(1.,-1.93389390793603E-16,-2.6963635414038E-15));
#558=DIRECTION('ref_axis',(-1.93389390793592E-16,-1.,4.17781738988813E-15));
#559=DIRECTION('center_axis',(1.,-1.93389390793603E-16,-2.6963635414038E-15));
#560=DIRECTION('ref_axis',(4.93663178731728E-16,0.993729350236665,0.111812246548466));
#561=DIRECTION('center_axis',(1.,-1.93389390793603E-16,-2.6963635414038E-15));
#562=DIRECTION('ref_axis',(-1.93389390793592E-16,-1.,4.17781738988813E-15));
#563=DIRECTION('center_axis',(1.,-1.93389390793603E-16,-2.6963635414038E-15));
#564=DIRECTION('ref_axis',(1.09309751419723E-16,-0.993729350236666,0.111812246548458));
#565=DIRECTION('',(2.04336389431049E-15,0.707106781186548,0.707106781186547));
#566=DIRECTION('center_axis',(1.,-1.93389390793603E-16,-2.6963635414038E-15));
#567=DIRECTION('ref_axis',(-1.93389390793592E-16,-1.,4.17781738988813E-15));
#568=DIRECTION('center_axis',(1.,-1.93389390793603E-16,-2.6963635414038E-15));
#569=DIRECTION('ref_axis',(-1.93389390793592E-16,-1.,4.17781738988813E-15));
#570=DIRECTION('center_axis',(1.,-1.93389390793603E-16,-2.6963635414038E-15));
#571=DIRECTION('ref_axis',(-4.93663178731698E-16,-0.993729350236667,-0.111812246548455));
#572=DIRECTION('center_axis',(1.,-1.93389390793603E-16,-2.6963635414038E-15));
#573=DIRECTION('ref_axis',(-1.93389390793592E-16,-1.,4.17781738988813E-15));
#574=DIRECTION('center_axis',(1.,-1.93389390793603E-16,-2.6963635414038E-15));
#575=DIRECTION('ref_axis',(-1.09309751419736E-16,0.993729350236666,-0.111812246548463));
#576=DIRECTION('center_axis',(1.,-1.93389390793603E-16,-2.6963635414038E-15));
#577=DIRECTION('ref_axis',(-1.93389390793592E-16,-1.,4.17781738988813E-15));
#578=DIRECTION('center_axis',(1.,-1.93389390793603E-16,-2.6963635414038E-15));
#579=DIRECTION('ref_axis',(-1.93389390793592E-16,-1.,4.17781738988813E-15));
#580=DIRECTION('center_axis',(1.76986999503111E-15,-0.707106781186547,0.707106781186548));
#581=DIRECTION('ref_axis',(-2.04336389431049E-15,-0.707106781186548,-0.707106781186547));
#582=DIRECTION('',(-1.,1.93389390793603E-16,2.6963635414038E-15));
#583=DIRECTION('center_axis',(1.,-1.93389390793603E-16,-2.6963635414038E-15));
#584=DIRECTION('ref_axis',(-1.93389390793592E-16,-1.,4.17781738988813E-15));
#585=DIRECTION('',(1.,-1.93389390793603E-16,-2.6963635414038E-15));
#586=DIRECTION('center_axis',(1.,-1.93389390793603E-16,-2.6963635414038E-15));
#587=DIRECTION('ref_axis',(4.83951870219276E-16,0.9941311274119,0.108181798426285));
#588=DIRECTION('',(1.,-1.93389390793603E-16,-2.6963635414038E-15));
#589=DIRECTION('center_axis',(1.,-1.93389390793603E-16,-2.6963635414038E-15));
#590=DIRECTION('ref_axis',(1.09309751419723E-16,-0.993729350236666,0.111812246548458));
#591=DIRECTION('',(1.,-1.93389390793603E-16,-2.6963635414038E-15));
#592=DIRECTION('center_axis',(1.,-1.93389390793603E-16,-2.6963635414038E-15));
#593=DIRECTION('ref_axis',(-2.6963635414038E-15,3.11130698758497E-15,-1.));
#594=DIRECTION('',(-1.,1.93389390793603E-16,2.6963635414038E-15));
#595=DIRECTION('center_axis',(1.,-1.93389390793603E-16,-2.6963635414038E-15));
#596=DIRECTION('ref_axis',(4.93663178731728E-16,0.993729350236665,0.111812246548466));
#597=DIRECTION('center_axis',(1.,-1.93389390793603E-16,-2.6963635414038E-15));
#598=DIRECTION('ref_axis',(-4.93663178731698E-16,-0.993729350236667,-0.111812246548455));
#599=DIRECTION('',(-1.,1.93389390793603E-16,2.6963635414038E-15));
#600=DIRECTION('center_axis',(1.,-1.93389390793603E-16,-2.6963635414038E-15));
#601=DIRECTION('ref_axis',(-1.09309751419736E-16,0.993729350236666,-0.111812246548463));
#602=DIRECTION('',(1.,-1.93389390793603E-16,-2.6963635414038E-15));
#603=DIRECTION('center_axis',(1.,-1.93389390793603E-16,-2.6963635414038E-15));
#604=DIRECTION('ref_axis',(-1.93389390793592E-16,-1.,4.17781738988813E-15));
#605=DIRECTION('center_axis',(1.,-1.93389390793603E-16,-2.6963635414038E-15));
#606=DIRECTION('ref_axis',(2.6963635414038E-15,5.24969282946036E-15,1.));
#607=DIRECTION('center_axis',(1.,-1.93389390793603E-16,-2.6963635414038E-15));
#608=DIRECTION('ref_axis',(1.93389390793572E-16,1.,-1.14057094274039E-14));
#609=CARTESIAN_POINT('',(0.,0.,0.));
#610=CARTESIAN_POINT('Origin',(90.0000000000003,-0.500000000001697,-36.7499999999999));
#611=CARTESIAN_POINT('',(86.9999999999999,4.74999999999831,-36.7499999999999));
#612=CARTESIAN_POINT('',(89.9999999999999,4.74999999999832,-36.7499999999999));
#613=CARTESIAN_POINT('',(88.5000000000001,4.7499999999983,-36.7499999999999));
#614=CARTESIAN_POINT('',(89.9999999999999,5.73861278752403,-36.7499999999999));
#615=CARTESIAN_POINT('',(89.9999999999999,1.24999999999827,-36.7499999999999));
#616=CARTESIAN_POINT('',(86.9999999999999,5.73861278752403,-36.7499999999999));
#617=CARTESIAN_POINT('',(86.9999999999999,5.73861278752403,-36.7499999999999));
#618=CARTESIAN_POINT('',(86.9999999999999,1.24999999999827,-36.7499999999999));
#619=CARTESIAN_POINT('Origin',(90.0000000000003,-0.500000000001697,-36.7499999999999));
#620=CARTESIAN_POINT('',(89.9999999999999,1.24999999999819,-36.7499999999999));
#621=CARTESIAN_POINT('',(86.9999999999999,1.24999999999819,-36.7499999999999));
#622=CARTESIAN_POINT('',(88.5000000000001,1.24999999999819,-36.7499999999999));
#623=CARTESIAN_POINT('',(86.9999999999999,0.261387212472465,-36.7499999999999));
#624=CARTESIAN_POINT('',(86.9999999999999,1.24999999999827,-36.7499999999999));
#625=CARTESIAN_POINT('',(89.9999999999999,0.261387212472471,-36.7499999999999));
#626=CARTESIAN_POINT('',(86.9999999999999,0.261387212472465,-36.7499999999999));
#627=CARTESIAN_POINT('',(89.9999999999999,1.24999999999827,-36.7499999999999));
#628=CARTESIAN_POINT('Origin',(90.0000000000002,6.4999999999983,-46.7499999999999));
#629=CARTESIAN_POINT('',(86.9999999999998,5.73861278752408,-46.7499999999999));
#630=CARTESIAN_POINT('',(89.9999999999998,5.73861278752409,-46.7499999999999));
#631=CARTESIAN_POINT('',(86.9999999999998,5.73861278752408,-46.7499999999999));
#632=CARTESIAN_POINT('',(89.9999999999998,4.74999999999812,-46.7499999999999));
#633=CARTESIAN_POINT('',(89.9999999999998,4.74999999999826,-46.7499999999999));
#634=CARTESIAN_POINT('',(86.9999999999998,4.74999999999812,-46.7499999999999));
#635=CARTESIAN_POINT('',(88.5,4.74999999999813,-46.7499999999999));
#636=CARTESIAN_POINT('',(86.9999999999998,4.74999999999826,-46.7499999999999));
#637=CARTESIAN_POINT('Origin',(90.0000000000002,6.4999999999983,-46.7499999999999));
#638=CARTESIAN_POINT('',(89.9999999999998,0.261387212472337,-46.7499999999999));
#639=CARTESIAN_POINT('',(86.9999999999998,0.261387212472343,-46.7499999999999));
#640=CARTESIAN_POINT('',(86.9999999999998,0.261387212472343,-46.7499999999999));
#641=CARTESIAN_POINT('',(86.9999999999998,1.24999999999827,-46.7499999999999));
#642=CARTESIAN_POINT('',(86.9999999999998,4.74999999999826,-46.7499999999999));
#643=CARTESIAN_POINT('',(89.9999999999998,1.24999999999828,-46.7499999999999));
#644=CARTESIAN_POINT('',(88.5,1.24999999999828,-46.7499999999999));
#645=CARTESIAN_POINT('',(89.9999999999998,4.74999999999826,-46.7499999999999));
#646=CARTESIAN_POINT('Origin',(86.9999999999999,1.76256313292178,-37.2625631329235));
#647=CARTESIAN_POINT('',(89.9999999999999,1.44879079424939,-36.9487907942511));
#648=CARTESIAN_POINT('',(89.9999999999999,2.99999999999825,-38.5));
#649=CARTESIAN_POINT('',(86.9999999999999,1.44879079424939,-36.9487907942511));
#650=CARTESIAN_POINT('',(86.9999999999999,1.44879079424939,-36.9487907942511));
#651=CARTESIAN_POINT('',(86.9999999999999,2.99999999999825,-38.5));
#652=CARTESIAN_POINT('Origin',(86.9999999999999,2.99999999999825,-38.5));
#653=CARTESIAN_POINT('',(89.9999999999998,5.2980970388545,-40.7980970388563));
#654=CARTESIAN_POINT('Origin',(89.9999999999999,2.99999999999825,-38.5));
#655=CARTESIAN_POINT('',(86.9999999999999,5.2980970388545,-40.7980970388562));
#656=CARTESIAN_POINT('',(86.9999999999999,5.2980970388545,-40.7980970388562));
#657=CARTESIAN_POINT('Origin',(86.9999999999999,2.99999999999825,-38.5));
#658=CARTESIAN_POINT('Origin',(86.9999999999998,2.99999999999821,-45.));
#659=CARTESIAN_POINT('',(89.9999999999998,0.701902961141947,-42.7019029611437));
#660=CARTESIAN_POINT('Origin',(89.9999999999998,2.99999999999821,-45.));
#661=CARTESIAN_POINT('',(86.9999999999999,0.701902961141947,-42.7019029611437));
#662=CARTESIAN_POINT('',(86.9999999999999,0.701902961141947,-42.7019029611437));
#663=CARTESIAN_POINT('Origin',(86.9999999999998,2.99999999999821,-45.));
#664=CARTESIAN_POINT('Origin',(86.9999999999998,4.23743686707468,-46.2374368670764));
#665=CARTESIAN_POINT('',(89.9999999999998,4.55120920574707,-46.5512092057488));
#666=CARTESIAN_POINT('',(89.9999999999998,2.99999999999821,-45.));
#667=CARTESIAN_POINT('',(86.9999999999998,4.55120920574707,-46.5512092057488));
#668=CARTESIAN_POINT('',(86.9999999999998,4.55120920574707,-46.5512092057488));
#669=CARTESIAN_POINT('',(86.9999999999998,2.99999999999821,-45.));
#670=CARTESIAN_POINT('Origin',(89.9999999999998,2.99999999999823,-41.75));
#671=CARTESIAN_POINT('',(89.9999999999998,0.701902961141965,-40.7980970388562));
#672=CARTESIAN_POINT('Origin',(89.9999999999999,2.99999999999825,-38.5));
#673=CARTESIAN_POINT('Origin',(89.9999999999998,-0.250000000001762,-41.7499999999999));
#674=CARTESIAN_POINT('',(89.9999999999998,1.44879079424935,-46.5512092057488));
#675=CARTESIAN_POINT('',(89.9999999999998,2.99999999999821,-45.));
#676=CARTESIAN_POINT('',(89.9999999999998,1.51851798062099,-45.9315100784543));
#677=CARTESIAN_POINT('Origin',(89.9999999999998,1.09523740365608,-46.1976558151555));
#678=CARTESIAN_POINT('',(89.9999999999998,4.48148201937544,-45.9315100784543));
#679=CARTESIAN_POINT('Origin',(89.9999999999998,2.99999999999821,-45.));
#680=CARTESIAN_POINT('Origin',(89.9999999999998,4.90476259634034,-46.1976558151555));
#681=CARTESIAN_POINT('',(89.9999999999998,5.29809703885451,-42.7019029611437));
#682=CARTESIAN_POINT('Origin',(89.9999999999998,2.99999999999821,-45.));
#683=CARTESIAN_POINT('Origin',(89.9999999999998,6.24999999999822,-41.75));
#684=CARTESIAN_POINT('',(89.9999999999999,4.55120920574711,-36.9487907942511));
#685=CARTESIAN_POINT('',(89.9999999999999,2.99999999999825,-38.5));
#686=CARTESIAN_POINT('',(89.9999999999999,4.48148201937546,-37.5684899215456));
#687=CARTESIAN_POINT('Origin',(89.9999999999999,4.90476259634038,-37.3023441848444));
#688=CARTESIAN_POINT('',(89.9999999999999,1.51851798062102,-37.5684899215456));
#689=CARTESIAN_POINT('Origin',(89.9999999999999,2.99999999999825,-38.5));
#690=CARTESIAN_POINT('Origin',(89.9999999999999,1.09523740365612,-37.3023441848444));
#691=CARTESIAN_POINT('Origin',(86.9999999999998,0.701902961141929,-47.2980970388562));
#692=CARTESIAN_POINT('',(86.9999999999998,1.44879079424935,-46.5512092057488));
#693=CARTESIAN_POINT('',(86.9999999999998,2.99999999999821,-45.));
#694=CARTESIAN_POINT('',(86.9999999999998,1.44879079424935,-46.5512092057488));
#695=CARTESIAN_POINT('Origin',(86.9999999999999,2.99999999999823,-41.75));
#696=CARTESIAN_POINT('',(86.9999999999999,1.51851798062102,-37.5684899215456));
#697=CARTESIAN_POINT('Origin',(86.9999999999999,1.09523740365612,-37.3023441848444));
#698=CARTESIAN_POINT('',(86.9999999999999,4.48148201937546,-37.5684899215456));
#699=CARTESIAN_POINT('Origin',(86.9999999999999,2.99999999999825,-38.5));
#700=CARTESIAN_POINT('',(86.9999999999999,4.55120920574711,-36.9487907942511));
#701=CARTESIAN_POINT('Origin',(86.9999999999999,4.90476259634038,-37.3023441848444));
#702=CARTESIAN_POINT('',(86.9999999999999,2.99999999999825,-38.5));
#703=CARTESIAN_POINT('',(86.9999999999999,5.29809703885451,-42.7019029611437));
#704=CARTESIAN_POINT('Origin',(86.9999999999999,6.24999999999822,-41.75));
#705=CARTESIAN_POINT('Origin',(86.9999999999998,2.99999999999821,-45.));
#706=CARTESIAN_POINT('',(86.9999999999998,4.48148201937544,-45.9315100784543));
#707=CARTESIAN_POINT('Origin',(86.9999999999998,4.90476259634034,-46.1976558151555));
#708=CARTESIAN_POINT('',(86.9999999999998,1.51851798062099,-45.9315100784543));
#709=CARTESIAN_POINT('Origin',(86.9999999999998,2.99999999999821,-45.));
#710=CARTESIAN_POINT('Origin',(86.9999999999998,1.09523740365608,-46.1976558151555));
#711=CARTESIAN_POINT('',(86.9999999999999,0.701902961141965,-40.7980970388562));
#712=CARTESIAN_POINT('Origin',(86.9999999999999,-0.250000000001762,-41.7499999999999));
#713=CARTESIAN_POINT('Origin',(86.9999999999999,2.99999999999825,-38.5));
#714=CARTESIAN_POINT('Origin',(86.9999999999999,5.29809703885451,-36.2019029611437));
#715=CARTESIAN_POINT('',(86.9999999999999,4.55120920574711,-36.9487907942511));
#716=CARTESIAN_POINT('Origin',(86.9999999999999,2.99999999999825,-38.5));
#717=CARTESIAN_POINT('',(86.9999999999999,0.701902961141965,-40.7980970388562));
#718=CARTESIAN_POINT('Origin',(86.9999999999998,2.99999999999821,-45.));
#719=CARTESIAN_POINT('',(86.9999999999999,5.29809703885451,-42.7019029611437));
#720=CARTESIAN_POINT('Origin',(86.9999999999999,4.90476259634038,-37.3023441848444));
#721=CARTESIAN_POINT('',(86.9999999999999,4.48148201937546,-37.5684899215456));
#722=CARTESIAN_POINT('Origin',(86.9999999999999,2.99999999999825,-38.5));
#723=CARTESIAN_POINT('',(86.9999999999999,1.51851798062102,-37.5684899215456));
#724=CARTESIAN_POINT('Origin',(86.9999999999999,1.09523740365612,-37.3023441848444));
#725=CARTESIAN_POINT('Origin',(86.9999999999998,4.90476259634034,-46.1976558151555));
#726=CARTESIAN_POINT('',(86.9999999999998,4.48148201937544,-45.9315100784543));
#727=CARTESIAN_POINT('Origin',(86.9999999999998,1.09523740365608,-46.1976558151555));
#728=CARTESIAN_POINT('',(86.9999999999998,1.51851798062099,-45.9315100784543));
#729=CARTESIAN_POINT('Origin',(86.9999999999999,6.24999999999822,-41.75));
#730=CARTESIAN_POINT('Origin',(86.9999999999998,2.99999999999821,-45.));
#731=CARTESIAN_POINT('Origin',(86.9999999999999,-0.250000000001762,-41.7499999999999));
#732=UNCERTAINTY_MEASURE_WITH_UNIT(LENGTH_MEASURE(0.01),#736,
'DISTANCE_ACCURACY_VALUE',
'Maximum model space distance between geometric entities at asserted c
onnectivities');
#733=UNCERTAINTY_MEASURE_WITH_UNIT(LENGTH_MEASURE(0.01),#736,
'DISTANCE_ACCURACY_VALUE',
'Maximum model space distance between geometric entities at asserted c
onnectivities');
#734=(
GEOMETRIC_REPRESENTATION_CONTEXT(3)
GLOBAL_UNCERTAINTY_ASSIGNED_CONTEXT((#732))
GLOBAL_UNIT_ASSIGNED_CONTEXT((#736,#738,#739))
REPRESENTATION_CONTEXT('','3D')
);
#735=(
GEOMETRIC_REPRESENTATION_CONTEXT(3)
GLOBAL_UNCERTAINTY_ASSIGNED_CONTEXT((#733))
GLOBAL_UNIT_ASSIGNED_CONTEXT((#736,#738,#739))
REPRESENTATION_CONTEXT('','3D')
);
#736=(
LENGTH_UNIT()
NAMED_UNIT(*)
SI_UNIT(.MILLI.,.METRE.)
);
#737=(
LENGTH_UNIT()
NAMED_UNIT(*)
SI_UNIT($,.METRE.)
);
#738=(
NAMED_UNIT(*)
PLANE_ANGLE_UNIT()
SI_UNIT($,.RADIAN.)
);
#739=(
NAMED_UNIT(*)
SI_UNIT($,.STERADIAN.)
SOLID_ANGLE_UNIT()
);
#740=SHAPE_DEFINITION_REPRESENTATION(#741,#742);
#741=PRODUCT_DEFINITION_SHAPE('',$,#744);
#742=SHAPE_REPRESENTATION('',(#432),#734);
#743=PRODUCT_DEFINITION_CONTEXT('part definition',#748,'design');
#744=PRODUCT_DEFINITION('2026-08-16-18-40-05-012','\X2\043A043B044E0447\X0\ 
(3)',#745,#743);
#745=PRODUCT_DEFINITION_FORMATION('',$,#750);
#746=PRODUCT_RELATED_PRODUCT_CATEGORY('\X2\043A043B044E0447\X0\ (3)',
'\X2\043A043B044E0447\X0\ (3)',(#750));
#747=APPLICATION_PROTOCOL_DEFINITION('international standard',
'automotive_design',2009,#748);
#748=APPLICATION_CONTEXT(
'Core Data for Automotive Mechanical Design Process');
#749=PRODUCT_CONTEXT('part definition',#748,'mechanical');
#750=PRODUCT('2026-08-16-18-40-05-012','\X2\043A043B044E0447\X0\ (3)',$,
(#749));
#751=PRESENTATION_STYLE_ASSIGNMENT((#752));
#752=SURFACE_STYLE_USAGE(.BOTH.,#753);
#753=SURFACE_SIDE_STYLE('',(#754));
#754=SURFACE_STYLE_FILL_AREA(#755);
#755=FILL_AREA_STYLE('\X2\042104420430043B044C\X0\ \X2\2014\X0\ \X2\0441043004420438043D04380440043E04320430043D043D0430044F\X0\',
(#756));
#756=FILL_AREA_STYLE_COLOUR(
'\X2\042104420430043B044C\X0\ \X2\2014\X0\ \X2\0441043004420438043D04380440043E04320430043D043D0430044F\X0\',
#757);
#757=COLOUR_RGB('\X2\042104420430043B044C\X0\ \X2\2014\X0\ \X2\0441043004420438043D04380440043E04320430043D043D0430044F\X0\',
0.627450980392157,0.627450980392157,0.627450980392157);
ENDSEC;
END-ISO-10303-21;
